<?xml version="1.0" standalone="no"?>
<svg xmlns:xlink="http://www.w3.org/1999/xlink" id="wave" style="transform:rotate(0deg); transition: 0.3s" viewBox="0 0 1440 390" version="1.1" xmlns="http://www.w3.org/2000/svg"><defs><linearGradient id="sw-gradient-0" x1="0" x2="0" y1="1" y2="0"><stop stop-color="#e7008a" offset="0%"/><stop stop-color="rgba(255, 179, 11, 1)" offset="100%"/></linearGradient></defs><path style="transform:translate(0, 0px); opacity:1" fill="url(#sw-gradient-0)" d="M0,234L48,227.5C96,221,192,208,288,182C384,156,480,117,576,123.5C672,130,768,182,864,182C960,182,1056,130,1152,110.5C1248,91,1344,104,1440,91C1536,78,1632,39,1728,45.5C1824,52,1920,104,2016,143C2112,182,2208,208,2304,227.5C2400,247,2496,260,2592,279.5C2688,299,2784,325,2880,279.5C2976,234,3072,117,3168,97.5C3264,78,3360,156,3456,208C3552,260,3648,286,3744,273C3840,260,3936,208,4032,208C4128,208,4224,260,4320,286C4416,312,4512,312,4608,292.5C4704,273,4800,234,4896,214.5C4992,195,5088,195,5184,201.5C5280,208,5376,221,5472,195C5568,169,5664,104,5760,104C5856,104,5952,169,6048,188.5C6144,208,6240,182,6336,169C6432,156,6528,156,6624,162.5C6720,169,6816,182,6864,188.5L6912,195L6912,390L6864,390C6816,390,6720,390,6624,390C6528,390,6432,390,6336,390C6240,390,6144,390,6048,390C5952,390,5856,390,5760,390C5664,390,5568,390,5472,390C5376,390,5280,390,5184,390C5088,390,4992,390,4896,390C4800,390,4704,390,4608,390C4512,390,4416,390,4320,390C4224,390,4128,390,4032,390C3936,390,3840,390,3744,390C3648,390,3552,390,3456,390C3360,390,3264,390,3168,390C3072,390,2976,390,2880,390C2784,390,2688,390,2592,390C2496,390,2400,390,2304,390C2208,390,2112,390,2016,390C1920,390,1824,390,1728,390C1632,390,1536,390,1440,390C1344,390,1248,390,1152,390C1056,390,960,390,864,390C768,390,672,390,576,390C480,390,384,390,288,390C192,390,96,390,48,390L0,390Z"/><defs><linearGradient id="sw-gradient-1" x1="0" x2="0" y1="1" y2="0"><stop stop-color="rgba(243, 106, 62, 1)" offset="0%"/><stop stop-color="rgba(255, 179, 11, 1)" offset="100%"/></linearGradient></defs><path style="transform:translate(0, 50px); opacity:0.9" fill="url(#sw-gradient-1)" d="M0,0L48,39C96,78,192,156,288,162.5C384,169,480,104,576,91C672,78,768,117,864,130C960,143,1056,130,1152,123.5C1248,117,1344,117,1440,104C1536,91,1632,65,1728,45.5C1824,26,1920,13,2016,52C2112,91,2208,182,2304,201.5C2400,221,2496,169,2592,136.5C2688,104,2784,91,2880,130C2976,169,3072,260,3168,266.5C3264,273,3360,195,3456,136.5C3552,78,3648,39,3744,32.5C3840,26,3936,52,4032,78C4128,104,4224,130,4320,162.5C4416,195,4512,234,4608,234C4704,234,4800,195,4896,156C4992,117,5088,78,5184,71.5C5280,65,5376,91,5472,117C5568,143,5664,169,5760,182C5856,195,5952,195,6048,201.5C6144,208,6240,221,6336,221C6432,221,6528,208,6624,221C6720,234,6816,273,6864,292.5L6912,312L6912,390L6864,390C6816,390,6720,390,6624,390C6528,390,6432,390,6336,390C6240,390,6144,390,6048,390C5952,390,5856,390,5760,390C5664,390,5568,390,5472,390C5376,390,5280,390,5184,390C5088,390,4992,390,4896,390C4800,390,4704,390,4608,390C4512,390,4416,390,4320,390C4224,390,4128,390,4032,390C3936,390,3840,390,3744,390C3648,390,3552,390,3456,390C3360,390,3264,390,3168,390C3072,390,2976,390,2880,390C2784,390,2688,390,2592,390C2496,390,2400,390,2304,390C2208,390,2112,390,2016,390C1920,390,1824,390,1728,390C1632,390,1536,390,1440,390C1344,390,1248,390,1152,390C1056,390,960,390,864,390C768,390,672,390,576,390C480,390,384,390,288,390C192,390,96,390,48,390L0,390Z"/><defs><linearGradient id="sw-gradient-2" x1="0" x2="0" y1="1" y2="0"><stop stop-color="rgba(243, 106, 62, 1)" offset="0%"/><stop stop-color="rgba(255, 179, 11, 1)" offset="100%"/></linearGradient></defs><path style="transform:translate(0, 100px); opacity:0.8" fill="url(#sw-gradient-2)" d="M0,78L48,110.5C96,143,192,208,288,234C384,260,480,247,576,227.5C672,208,768,182,864,143C960,104,1056,52,1152,65C1248,78,1344,156,1440,162.5C1536,169,1632,104,1728,123.5C1824,143,1920,247,2016,266.5C2112,286,2208,221,2304,175.5C2400,130,2496,104,2592,97.5C2688,91,2784,104,2880,130C2976,156,3072,195,3168,175.5C3264,156,3360,78,3456,58.5C3552,39,3648,78,3744,136.5C3840,195,3936,273,4032,266.5C4128,260,4224,169,4320,169C4416,169,4512,260,4608,279.5C4704,299,4800,247,4896,188.5C4992,130,5088,65,5184,58.5C5280,52,5376,104,5472,156C5568,208,5664,260,5760,234C5856,208,5952,104,6048,52C6144,0,6240,0,6336,26C6432,52,6528,104,6624,117C6720,130,6816,104,6864,91L6912,78L6912,390L6864,390C6816,390,6720,390,6624,390C6528,390,6432,390,6336,390C6240,390,6144,390,6048,390C5952,390,5856,390,5760,390C5664,390,5568,390,5472,390C5376,390,5280,390,5184,390C5088,390,4992,390,4896,390C4800,390,4704,390,4608,390C4512,390,4416,390,4320,390C4224,390,4128,390,4032,390C3936,390,3840,390,3744,390C3648,390,3552,390,3456,390C3360,390,3264,390,3168,390C3072,390,2976,390,2880,390C2784,390,2688,390,2592,390C2496,390,2400,390,2304,390C2208,390,2112,390,2016,390C1920,390,1824,390,1728,390C1632,390,1536,390,1440,390C1344,390,1248,390,1152,390C1056,390,960,390,864,390C768,390,672,390,576,390C480,390,384,390,288,390C192,390,96,390,48,390L0,390Z"/></svg>