<?xml version="1.0" standalone="no"?>
<svg xmlns:xlink="http://www.w3.org/1999/xlink" id="wave" style="transform:rotate(180deg); transition: 0.3s" viewBox="0 0 1440 370" version="1.1" xmlns="http://www.w3.org/2000/svg"><defs><linearGradient id="sw-gradient-0" x1="0" x2="0" y1="1" y2="0"><stop stop-color="#e7008a" offset="0%" /><stop stop-color="rgba(255, 179, 11, 1)" offset="100%"/></linearGradient></defs><path style="transform:translate(0, 0px); opacity:1" fill="url(#sw-gradient-0)" d="M0,74L40,67.8C80,62,160,49,240,61.7C320,74,400,111,480,104.8C560,99,640,49,720,37C800,25,880,49,960,92.5C1040,136,1120,197,1200,215.8C1280,234,1360,210,1440,185C1520,160,1600,136,1680,135.7C1760,136,1840,160,1920,178.8C2000,197,2080,210,2160,185C2240,160,2320,99,2400,80.2C2480,62,2560,86,2640,129.5C2720,173,2800,234,2880,265.2C2960,296,3040,296,3120,289.8C3200,284,3280,271,3360,259C3440,247,3520,234,3600,228.2C3680,222,3760,222,3840,191.2C3920,160,4000,99,4080,74C4160,49,4240,62,4320,92.5C4400,123,4480,173,4560,172.7C4640,173,4720,123,4800,141.8C4880,160,4960,247,5040,259C5120,271,5200,210,5280,203.5C5360,197,5440,247,5520,222C5600,197,5680,99,5720,49.3L5760,0L5760,370L5720,370C5680,370,5600,370,5520,370C5440,370,5360,370,5280,370C5200,370,5120,370,5040,370C4960,370,4880,370,4800,370C4720,370,4640,370,4560,370C4480,370,4400,370,4320,370C4240,370,4160,370,4080,370C4000,370,3920,370,3840,370C3760,370,3680,370,3600,370C3520,370,3440,370,3360,370C3280,370,3200,370,3120,370C3040,370,2960,370,2880,370C2800,370,2720,370,2640,370C2560,370,2480,370,2400,370C2320,370,2240,370,2160,370C2080,370,2000,370,1920,370C1840,370,1760,370,1680,370C1600,370,1520,370,1440,370C1360,370,1280,370,1200,370C1120,370,1040,370,960,370C880,370,800,370,720,370C640,370,560,370,480,370C400,370,320,370,240,370C160,370,80,370,40,370L0,370Z"/><defs><linearGradient id="sw-gradient-1" x1="0" x2="0" y1="1" y2="0"><stop stop-color="rgba(243, 106, 62, 1)" offset="0%"/><stop stop-color="rgba(255, 179, 11, 1)" offset="100%"/></linearGradient></defs><path style="transform:translate(0, 50px); opacity:0.9" fill="url(#sw-gradient-1)" d="M0,259L40,265.2C80,271,160,284,240,246.7C320,210,400,123,480,80.2C560,37,640,37,720,43.2C800,49,880,62,960,104.8C1040,148,1120,222,1200,209.7C1280,197,1360,99,1440,104.8C1520,111,1600,222,1680,259C1760,296,1840,259,1920,209.7C2000,160,2080,99,2160,111C2240,123,2320,210,2400,252.8C2480,296,2560,296,2640,302.2C2720,308,2800,321,2880,314.5C2960,308,3040,284,3120,240.5C3200,197,3280,136,3360,111C3440,86,3520,99,3600,117.2C3680,136,3760,160,3840,141.8C3920,123,4000,62,4080,86.3C4160,111,4240,222,4320,277.5C4400,333,4480,333,4560,296C4640,259,4720,185,4800,154.2C4880,123,4960,136,5040,123.3C5120,111,5200,74,5280,61.7C5360,49,5440,62,5520,61.7C5600,62,5680,49,5720,43.2L5760,37L5760,370L5720,370C5680,370,5600,370,5520,370C5440,370,5360,370,5280,370C5200,370,5120,370,5040,370C4960,370,4880,370,4800,370C4720,370,4640,370,4560,370C4480,370,4400,370,4320,370C4240,370,4160,370,4080,370C4000,370,3920,370,3840,370C3760,370,3680,370,3600,370C3520,370,3440,370,3360,370C3280,370,3200,370,3120,370C3040,370,2960,370,2880,370C2800,370,2720,370,2640,370C2560,370,2480,370,2400,370C2320,370,2240,370,2160,370C2080,370,2000,370,1920,370C1840,370,1760,370,1680,370C1600,370,1520,370,1440,370C1360,370,1280,370,1200,370C1120,370,1040,370,960,370C880,370,800,370,720,370C640,370,560,370,480,370C400,370,320,370,240,370C160,370,80,370,40,370L0,370Z"/><defs><linearGradient id="sw-gradient-2" x1="0" x2="0" y1="1" y2="0"><stop stop-color="rgba(243, 106, 62, 1)" offset="0%"/><stop stop-color="rgba(255, 179, 11, 1)" offset="100%"/></linearGradient></defs><path style="transform:translate(0, 100px); opacity:0.8" fill="url(#sw-gradient-2)" d="M0,148L40,141.8C80,136,160,123,240,129.5C320,136,400,160,480,154.2C560,148,640,111,720,117.2C800,123,880,173,960,215.8C1040,259,1120,296,1200,259C1280,222,1360,111,1440,55.5C1520,0,1600,0,1680,37C1760,74,1840,148,1920,148C2000,148,2080,74,2160,74C2240,74,2320,148,2400,148C2480,148,2560,74,2640,37C2720,0,2800,0,2880,49.3C2960,99,3040,197,3120,228.2C3200,259,3280,222,3360,197.3C3440,173,3520,160,3600,141.8C3680,123,3760,99,3840,123.3C3920,148,4000,222,4080,246.7C4160,271,4240,247,4320,215.8C4400,185,4480,148,4560,160.3C4640,173,4720,234,4800,215.8C4880,197,4960,99,5040,61.7C5120,25,5200,49,5280,80.2C5360,111,5440,148,5520,185C5600,222,5680,259,5720,277.5L5760,296L5760,370L5720,370C5680,370,5600,370,5520,370C5440,370,5360,370,5280,370C5200,370,5120,370,5040,370C4960,370,4880,370,4800,370C4720,370,4640,370,4560,370C4480,370,4400,370,4320,370C4240,370,4160,370,4080,370C4000,370,3920,370,3840,370C3760,370,3680,370,3600,370C3520,370,3440,370,3360,370C3280,370,3200,370,3120,370C3040,370,2960,370,2880,370C2800,370,2720,370,2640,370C2560,370,2480,370,2400,370C2320,370,2240,370,2160,370C2080,370,2000,370,1920,370C1840,370,1760,370,1680,370C1600,370,1520,370,1440,370C1360,370,1280,370,1200,370C1120,370,1040,370,960,370C880,370,800,370,720,370C640,370,560,370,480,370C400,370,320,370,240,370C160,370,80,370,40,370L0,370Z"/></svg>